<mxfile host="app.diagrams.net" modified="2021-10-09T06:20:05.287Z" agent="5.0 (Windows NT 10.0; Win64; x64) AppleWebKit/537.36 (KHTML, like Gecko) Chrome/94.0.4606.71 Safari/537.36" etag="cflIyL1ivvmF7hZMtvrr" version="15.5.0" type="github">
  <diagram id="BPcrIDIoqUS7D80RJvpi" name="Page-1">
    <mxGraphModel dx="782" dy="650" grid="1" gridSize="10" guides="1" tooltips="1" connect="1" arrows="1" fold="1" page="1" pageScale="1" pageWidth="827" pageHeight="1169" math="0" shadow="0">
      <root>
        <mxCell id="0" />
        <mxCell id="1" parent="0" />
        <mxCell id="x7MMJvCufj6kcRQVhLhO-1" value="&lt;font style=&quot;font-size: 24px&quot;&gt;&lt;span style=&quot;background-color: rgb(229 , 204 , 255)&quot;&gt;Barry Diller&lt;/span&gt; on &lt;span style=&quot;background-color: rgb(255 , 153 , 204)&quot;&gt;Wednesday&lt;/span&gt; &lt;b&gt;quit&lt;/b&gt; as &lt;span style=&quot;background-color: rgb(255 , 217 , 102)&quot;&gt;chief&lt;/span&gt; of &lt;span style=&quot;background-color: rgb(153 , 204 , 255)&quot;&gt;Vivendi Universal Entertainment&lt;/span&gt;.&lt;/font&gt;" style="text;html=1;strokeColor=none;fillColor=none;align=center;verticalAlign=middle;whiteSpace=wrap;rounded=0;" parent="1" vertex="1">
          <mxGeometry x="15" y="270" width="812" height="20" as="geometry" />
        </mxCell>
        <mxCell id="x7MMJvCufj6kcRQVhLhO-2" value="&lt;b&gt;&lt;font style=&quot;font-size: 18px&quot; color=&quot;#3333ff&quot;&gt;Trigger&lt;/font&gt;&lt;/b&gt;" style="text;html=1;strokeColor=none;fillColor=none;align=center;verticalAlign=middle;whiteSpace=wrap;rounded=0;" parent="1" vertex="1">
          <mxGeometry x="312" y="310" width="40" height="20" as="geometry" />
        </mxCell>
        <mxCell id="x7MMJvCufj6kcRQVhLhO-3" value="&lt;b style=&quot;font-family: &amp;#34;helvetica&amp;#34; ; font-style: normal ; letter-spacing: normal ; text-align: center ; text-indent: 0px ; text-transform: none ; word-spacing: 0px ; background-color: rgb(248 , 249 , 250)&quot;&gt;&lt;font style=&quot;font-size: 18px&quot; color=&quot;#3333ff&quot;&gt;Arguments&lt;/font&gt;&lt;/b&gt;" style="text;whiteSpace=wrap;html=1;" parent="1" vertex="1">
          <mxGeometry x="572" y="305" width="70" height="30" as="geometry" />
        </mxCell>
        <mxCell id="x7MMJvCufj6kcRQVhLhO-4" value="" style="curved=1;endArrow=classic;html=1;" parent="1" edge="1">
          <mxGeometry width="50" height="50" relative="1" as="geometry">
            <mxPoint x="322" y="260" as="sourcePoint" />
            <mxPoint x="232" y="260" as="targetPoint" />
            <Array as="points">
              <mxPoint x="312" y="250" />
              <mxPoint x="272" y="240" />
            </Array>
          </mxGeometry>
        </mxCell>
        <mxCell id="x7MMJvCufj6kcRQVhLhO-5" value="" style="curved=1;endArrow=classic;html=1;" parent="1" edge="1">
          <mxGeometry width="50" height="50" relative="1" as="geometry">
            <mxPoint x="332" y="260" as="sourcePoint" />
            <mxPoint x="72" y="260" as="targetPoint" />
            <Array as="points">
              <mxPoint x="322" y="210" />
              <mxPoint x="192" y="200" />
            </Array>
          </mxGeometry>
        </mxCell>
        <mxCell id="x7MMJvCufj6kcRQVhLhO-15" value="" style="curved=1;endArrow=classic;html=1;" parent="1" edge="1">
          <mxGeometry width="50" height="50" relative="1" as="geometry">
            <mxPoint x="352" y="260" as="sourcePoint" />
            <mxPoint x="412" y="260" as="targetPoint" />
            <Array as="points">
              <mxPoint x="372" y="240" />
            </Array>
          </mxGeometry>
        </mxCell>
        <mxCell id="x7MMJvCufj6kcRQVhLhO-17" value="" style="curved=1;endArrow=classic;html=1;" parent="1" edge="1">
          <mxGeometry width="50" height="50" relative="1" as="geometry">
            <mxPoint x="342" y="260" as="sourcePoint" />
            <mxPoint x="602" y="260" as="targetPoint" />
            <Array as="points">
              <mxPoint x="402" y="150" />
            </Array>
          </mxGeometry>
        </mxCell>
        <mxCell id="x7MMJvCufj6kcRQVhLhO-18" value="&lt;b&gt;&lt;font style=&quot;font-size: 18px&quot; color=&quot;#3333ff&quot;&gt;Person&lt;/font&gt;&lt;/b&gt;" style="text;html=1;strokeColor=none;fillColor=none;align=center;verticalAlign=middle;whiteSpace=wrap;rounded=0;" parent="1" vertex="1">
          <mxGeometry x="216" y="180" width="40" height="20" as="geometry" />
        </mxCell>
        <mxCell id="x7MMJvCufj6kcRQVhLhO-19" value="&lt;b&gt;&lt;font style=&quot;font-size: 18px&quot; color=&quot;#3333ff&quot;&gt;Organization&lt;/font&gt;&lt;/b&gt;" style="text;html=1;strokeColor=none;fillColor=none;align=center;verticalAlign=middle;whiteSpace=wrap;rounded=0;" parent="1" vertex="1">
          <mxGeometry x="432" y="180" width="40" height="20" as="geometry" />
        </mxCell>
        <mxCell id="x7MMJvCufj6kcRQVhLhO-20" value="&lt;b&gt;&lt;font style=&quot;font-size: 18px&quot; color=&quot;#3333ff&quot;&gt;Time&lt;/font&gt;&lt;/b&gt;" style="text;html=1;strokeColor=none;fillColor=none;align=center;verticalAlign=middle;whiteSpace=wrap;rounded=0;" parent="1" vertex="1">
          <mxGeometry x="202" y="230" width="40" height="20" as="geometry" />
        </mxCell>
        <mxCell id="x7MMJvCufj6kcRQVhLhO-21" value="&lt;b&gt;&lt;font style=&quot;font-size: 18px&quot; color=&quot;#3333ff&quot;&gt;Position&lt;/font&gt;&lt;/b&gt;" style="text;html=1;strokeColor=none;fillColor=none;align=center;verticalAlign=middle;whiteSpace=wrap;rounded=0;" parent="1" vertex="1">
          <mxGeometry x="412" y="230" width="40" height="20" as="geometry" />
        </mxCell>
      </root>
    </mxGraphModel>
  </diagram>
</mxfile>
